<mxfile host="app.diagrams.net" agent="Mozilla/5.0 (X11; Linux x86_64) AppleWebKit/537.36 (KHTML, like Gecko) Chrome/124.0.0.0 Safari/537.36" version="26.0.5">
  <diagram name="Страница — 1" id="iXKBSagJiUr_qD_LvLRX">
    <mxGraphModel dx="2191" dy="759" grid="1" gridSize="10" guides="1" tooltips="1" connect="1" arrows="1" fold="1" page="1" pageScale="1" pageWidth="827" pageHeight="1169" math="0" shadow="0">
      <root>
        <mxCell id="0" />
        <mxCell id="1" parent="0" />
        <mxCell id="hK_tp04Cac9_kF5Fw0G2-4" value="&lt;b&gt;&lt;font style=&quot;font-size: 16px;&quot;&gt;Data sources&lt;/font&gt;&lt;/b&gt;" style="rounded=0;whiteSpace=wrap;html=1;verticalAlign=top;" vertex="1" parent="1">
          <mxGeometry x="-320" y="240" width="290" height="290" as="geometry" />
        </mxCell>
        <mxCell id="IeSUwaB9jIrNO8kcGbB0-12" value="" style="rounded=0;whiteSpace=wrap;html=1;fillColor=#000098;strokeColor=#6c8ebf;" parent="1" vertex="1">
          <mxGeometry x="70" y="240" width="570" height="290" as="geometry" />
        </mxCell>
        <mxCell id="IeSUwaB9jIrNO8kcGbB0-3" value="Mongo Database" style="shape=cylinder3;whiteSpace=wrap;html=1;boundedLbl=1;backgroundOutline=1;size=15;fillColor=#0000DD;strokeColor=#FFFFFF;fontSize=20;fontColor=#FFFFFF;" parent="1" vertex="1">
          <mxGeometry x="440" y="325" width="190" height="150" as="geometry" />
        </mxCell>
        <mxCell id="IeSUwaB9jIrNO8kcGbB0-8" style="edgeStyle=orthogonalEdgeStyle;rounded=0;orthogonalLoop=1;jettySize=auto;html=1;strokeColor=#FFFFFF;entryX=0;entryY=0.5;entryDx=0;entryDy=0;entryPerimeter=0;" parent="1" source="IeSUwaB9jIrNO8kcGbB0-7" edge="1" target="IeSUwaB9jIrNO8kcGbB0-3">
          <mxGeometry relative="1" as="geometry">
            <mxPoint x="430" y="510" as="targetPoint" />
          </mxGeometry>
        </mxCell>
        <mxCell id="IeSUwaB9jIrNO8kcGbB0-7" value="&lt;div&gt;Index Periodic Job&lt;/div&gt;&lt;div&gt;[docker: captain-bridge]&lt;/div&gt;" style="rounded=1;whiteSpace=wrap;html=1;fillColor=#0000DD;strokeColor=#FFFFFF;fontSize=20;gradientColor=none;fontColor=#FFFFFF;" parent="1" vertex="1">
          <mxGeometry x="80" y="330" width="300" height="140" as="geometry" />
        </mxCell>
        <mxCell id="IeSUwaB9jIrNO8kcGbB0-15" value="&lt;font color=&quot;#ffff00&quot; style=&quot;font-size: 24px;&quot;&gt;&lt;b style=&quot;&quot;&gt;Captain Bridge&lt;/b&gt;&lt;/font&gt;" style="text;html=1;align=center;verticalAlign=middle;whiteSpace=wrap;rounded=0;" parent="1" vertex="1">
          <mxGeometry x="420" y="250" width="210" height="50" as="geometry" />
        </mxCell>
        <mxCell id="IeSUwaB9jIrNO8kcGbB0-19" value="&lt;font style=&quot;font-size: 20px;&quot;&gt;&lt;b&gt;Atlassian JIRA&lt;/b&gt;&lt;/font&gt;" style="whiteSpace=wrap;html=1;aspect=fixed;verticalAlign=middle;" parent="1" vertex="1">
          <mxGeometry x="-280" y="285" width="95" height="95" as="geometry" />
        </mxCell>
        <mxCell id="QE3bn2jYNVTKnfU2roEE-15" value="" style="verticalLabelPosition=bottom;verticalAlign=top;html=1;strokeWidth=2;shape=mxgraph.arrows2.arrow;dy=0.6;dx=40;notch=0;" parent="1" vertex="1">
          <mxGeometry x="-20" y="367.5" width="90" height="62.5" as="geometry" />
        </mxCell>
        <mxCell id="hK_tp04Cac9_kF5Fw0G2-2" value="&lt;font style=&quot;font-size: 20px;&quot;&gt;&lt;b&gt;Github&lt;/b&gt;&lt;/font&gt;" style="whiteSpace=wrap;html=1;aspect=fixed;verticalAlign=middle;" vertex="1" parent="1">
          <mxGeometry x="-170" y="285" width="95" height="95" as="geometry" />
        </mxCell>
        <mxCell id="hK_tp04Cac9_kF5Fw0G2-6" value="&lt;font style=&quot;font-size: 20px;&quot;&gt;&lt;b&gt;Gitlab&lt;/b&gt;&lt;/font&gt;" style="whiteSpace=wrap;html=1;aspect=fixed;verticalAlign=middle;" vertex="1" parent="1">
          <mxGeometry x="-280" y="395" width="95" height="95" as="geometry" />
        </mxCell>
        <mxCell id="hK_tp04Cac9_kF5Fw0G2-7" value="&lt;font style=&quot;font-size: 20px;&quot;&gt;&lt;b&gt;Telegram&lt;/b&gt;&lt;/font&gt;" style="whiteSpace=wrap;html=1;aspect=fixed;verticalAlign=middle;" vertex="1" parent="1">
          <mxGeometry x="-167.5" y="395" width="95" height="95" as="geometry" />
        </mxCell>
        <mxCell id="hK_tp04Cac9_kF5Fw0G2-8" value="&lt;b&gt;&lt;font style=&quot;font-size: 13px;&quot;&gt;every minute&lt;/font&gt;&lt;/b&gt;" style="text;html=1;align=center;verticalAlign=middle;whiteSpace=wrap;rounded=0;" vertex="1" parent="1">
          <mxGeometry x="-5" y="325" width="60" height="30" as="geometry" />
        </mxCell>
      </root>
    </mxGraphModel>
  </diagram>
</mxfile>
